<svg width="64" height="64" viewBox="0 0 64 64" fill="none" xmlns="http://www.w3.org/2000/svg">
  <!-- Modern Botanical Favicon for Growhaus -->

  <!-- Background circle for contrast -->
  <circle cx="32" cy="32" r="30" fill="#2D5A3D"/>

  <!-- Left Leaf -->
  <path d="M24 32 Q16 24 14 16 C14 14 15 12 16 12 C24 15 28 22 32 32"
        fill="#8FBC8F" opacity="0.9"/>
  <path d="M24 32 Q16 24 14 16"
        stroke="#FFFFFF" stroke-width="1.5" stroke-linecap="round" fill="none" opacity="0.3"/>

  <!-- Right Leaf -->
  <path d="M40 32 Q48 24 50 16 C50 14 49 12 48 12 C40 15 36 22 32 32"
        fill="#8FBC8F" opacity="0.9"/>
  <path d="M40 32 Q48 24 50 16"
        stroke="#FFFFFF" stroke-width="1.5" stroke-linecap="round" fill="none" opacity="0.3"/>

  <!-- Center Top Leaf -->
  <path d="M32 10 Q28 16 28 24 C28 26 29 28 32 32 C35 28 36 26 36 24 Q36 16 32 10 Z"
        fill="#A8D5BA"/>

  <!-- Bottom Leaves -->
  <path d="M22 38 Q14 44 12 52 C12 54 13 56 14 56 C22 53 26 46 32 38"
        fill="#6B8E76" opacity="0.8"/>
  <path d="M42 38 Q50 44 52 52 C52 54 51 56 50 56 C42 53 38 46 32 38"
        fill="#6B8E76" opacity="0.8"/>

  <!-- Central Stem -->
  <line x1="32" y1="10" x2="32" y2="56"
        stroke="#FFFFFF" stroke-width="3" stroke-linecap="round" opacity="0.9"/>

  <!-- Growth Points -->
  <circle cx="32" cy="18" r="2" fill="#D4A574"/>
  <circle cx="32" cy="32" r="2.5" fill="#D4A574"/>
  <circle cx="32" cy="46" r="2" fill="#D4A574"/>
</svg>
