<svg width="48" height="48" viewBox="0 0 48 48" fill="none" xmlns="http://www.w3.org/2000/svg">
  <!-- Modern Botanical Logo for Growhaus -->

  <!-- Left Leaf -->
  <path d="M18 24 Q12 18 10 12 C10 10 11 9 12 9 C18 11 22 16 24 24 C22 16 18 11 12 9"
        fill="#2D5A3D" opacity="0.9"/>
  <path d="M18 24 Q12 18 10 12"
        stroke="#4A7C59" stroke-width="1.5" stroke-linecap="round" fill="none" opacity="0.5"/>

  <!-- Right Leaf -->
  <path d="M30 24 Q36 18 38 12 C38 10 37 9 36 9 C30 11 26 16 24 24 C26 16 30 11 36 9"
        fill="#2D5A3D" opacity="0.9"/>
  <path d="M30 24 Q36 18 38 12"
        stroke="#4A7C59" stroke-width="1.5" stroke-linecap="round" fill="none" opacity="0.5"/>

  <!-- Center Leaf/Sprout -->
  <path d="M24 8 Q20 12 20 18 C20 20 21 22 24 24 C27 22 28 20 28 18 Q28 12 24 8 Z"
        fill="#3A6D4A"/>
  <path d="M24 10 L24 22"
        stroke="#8FBC8F" stroke-width="1" stroke-linecap="round" opacity="0.4"/>

  <!-- Bottom Leaves -->
  <path d="M16 28 Q10 32 8 38 C8 40 9 41 10 41 C16 39 20 34 24 28"
        fill="#4A7C59" opacity="0.8"/>
  <path d="M32 28 Q38 32 40 38 C40 40 39 41 38 41 C32 39 28 34 24 28"
        fill="#4A7C59" opacity="0.8"/>

  <!-- Central Stem -->
  <path d="M24 8 Q23 18 24 28 Q25 18 24 8"
        fill="#2D5A3D"/>
  <line x1="24" y1="8" x2="24" y2="41"
        stroke="#2D5A3D" stroke-width="2.5" stroke-linecap="round"/>

  <!-- Accent Dots (Growth Points) -->
  <circle cx="24" cy="14" r="1.5" fill="#8FBC8F" opacity="0.6"/>
  <circle cx="24" cy="24" r="1.5" fill="#8FBC8F" opacity="0.6"/>
  <circle cx="24" cy="34" r="1.5" fill="#8FBC8F" opacity="0.6"/>
</svg>
